<?xml version="1.0" encoding="UTF-8" standalone="no"?>
<!-- Created with Inkscape (http://www.inkscape.org/) -->

<svg
   xmlns:dc="http://purl.org/dc/elements/1.1/"
   xmlns:cc="http://creativecommons.org/ns#"
   xmlns:rdf="http://www.w3.org/1999/02/22-rdf-syntax-ns#"
   xmlns:svg="http://www.w3.org/2000/svg"
   xmlns="http://www.w3.org/2000/svg"
   xmlns:sodipodi="http://sodipodi.sourceforge.net/DTD/sodipodi-0.dtd"
   xmlns:inkscape="http://www.inkscape.org/namespaces/inkscape"
   width="1280"
   height="1280"
   id="svg2"
   version="1.1"
   inkscape:version="0.48.4 r9939"
   inkscape:export-filename="D:\Sebastian\Documents\F_Projekt\RPI-Display-Backlight-Controller-for-Kodi\icon2.png"
   inkscape:export-xdpi="18"
   inkscape:export-ydpi="18"
   sodipodi:docname="logo.svg">
  <title
     id="title3033">RPI Display Backlight Controller for Kodi</title>
  <defs
     id="defs4" />
  <sodipodi:namedview
     id="base"
     pagecolor="#c0c0c0"
     bordercolor="#666666"
     borderopacity="1.0"
     inkscape:pageopacity="1"
     inkscape:pageshadow="2"
     inkscape:zoom="0.35"
     inkscape:cx="98.049914"
     inkscape:cy="673.25617"
     inkscape:document-units="px"
     inkscape:current-layer="g3882"
     showgrid="false"
     showborder="true"
     fit-margin-top="0"
     fit-margin-left="200"
     fit-margin-right="0"
     fit-margin-bottom="0"
     borderlayer="false"
     inkscape:window-width="1680"
     inkscape:window-height="987"
     inkscape:window-x="-8"
     inkscape:window-y="-8"
     inkscape:window-maximized="1" />
  <metadata
     id="metadata7">
    <rdf:RDF>
      <cc:Work
         rdf:about="">
        <dc:format>image/svg+xml</dc:format>
        <dc:type
           rdf:resource="http://purl.org/dc/dcmitype/StillImage" />
        <dc:title>RPI Display Backlight Controller for Kodi</dc:title>
        <dc:creator>
          <cc:Agent>
            <dc:title>SebastiansIT</dc:title>
          </cc:Agent>
        </dc:creator>
        <cc:license
           rdf:resource="http://creativecommons.org/licenses/by-sa/3.0/" />
      </cc:Work>
      <cc:License
         rdf:about="http://creativecommons.org/licenses/by-sa/3.0/">
        <cc:permits
           rdf:resource="http://creativecommons.org/ns#Reproduction" />
        <cc:permits
           rdf:resource="http://creativecommons.org/ns#Distribution" />
        <cc:requires
           rdf:resource="http://creativecommons.org/ns#Notice" />
        <cc:requires
           rdf:resource="http://creativecommons.org/ns#Attribution" />
        <cc:permits
           rdf:resource="http://creativecommons.org/ns#DerivativeWorks" />
        <cc:requires
           rdf:resource="http://creativecommons.org/ns#ShareAlike" />
      </cc:License>
    </rdf:RDF>
  </metadata>
  <g
     inkscape:label="Layer 1"
     inkscape:groupmode="layer"
     id="layer1"
     transform="translate(-78.406906,647.25352)">
    <g
       id="g3874"
       transform="matrix(1.004143,0,0,1.0041018,337.27496,-602.32741)"
       style="stroke:#c0c0c0;stroke-width:0.9444803;stroke-opacity:1">
      <g
         id="g3882"
         style="stroke:#c0c0c0;stroke-width:0.9444803;stroke-opacity:1">
        <path
           sodipodi:type="arc"
           style="fill:#006400;fill-opacity:1;fill-rule:nonzero;stroke:none"
           id="path3036"
           sodipodi:cx="-291.42856"
           sodipodi:cy="592.85712"
           sodipodi:rx="465.71429"
           sodipodi:ry="492.85715"
           d="m 174.28574,592.85712 a 465.71429,492.85715 0 1 1 -931.42859,0 465.71429,492.85715 0 1 1 931.42859,0 z"
           transform="matrix(1.2188766,0,0,1.1517973,734.77488,-90.208239)" />
        <path
           sodipodi:type="arc"
           style="fill:none;stroke:#c0c0c0;stroke-width:11.50375462;stroke-linecap:round;stroke-linejoin:miter;stroke-miterlimit:4;stroke-opacity:1;stroke-dasharray:none"
           id="path2991"
           sodipodi:cx="147.14285"
           sodipodi:cy="136.6479"
           sodipodi:rx="61.428574"
           sodipodi:ry="67.142853"
           d="m 107.65733,188.08231 c -25.988876,-23.83583 -29.378749,-66.18656 -7.5715,-94.592999 21.80726,-28.406441 60.55367,-32.11165 86.54255,-8.275818 25.98887,23.835837 29.37874,66.186567 7.57149,94.593007 -2.29863,2.99423 -4.83208,5.76335 -7.57149,8.27581"
           sodipodi:start="2.268928"
           sodipodi:end="7.1558499"
           sodipodi:open="true"
           transform="matrix(4.4608269,0,0,4.2002207,-276.68126,-184.50278)" />
        <path
           style="fill:none;stroke:#c0c0c0;stroke-width:4.97947264;stroke-linecap:butt;stroke-linejoin:miter;stroke-miterlimit:4;stroke-opacity:1;stroke-dasharray:none;stroke-dashoffset:0"
           d="m 273.98328,402.88441 c 2.85714,-3.80952 4.7619,-14.28571 8.57142,-11.42857 3.80953,2.85714 -11.9386,14.79574 -8.57142,11.42857 4.31208,-4.31209 7.11648,-9.97363 11.42857,-14.28571 0.67343,-0.67344 2.1837,0.67343 2.85714,0 0.67344,-0.67344 -0.67344,-2.18371 0,-2.85715 0.67344,-0.67343 2.18371,0.67344 2.85714,0 0.67344,-0.67343 -0.67343,-2.18371 0,-2.85714 1.34687,-1.34687 4.36742,1.34687 5.71429,0 0.96256,-0.96256 -0.96256,-4.75172 0,-5.71429 0.92698,-0.92697 4.78731,0.92698 5.71428,0 0.67344,-0.67343 -0.67343,-2.1837 0,-2.85714 0.67344,-0.67343 2.18371,0.67344 2.85715,0 0.67343,-0.67343 -0.67344,-2.18371 0,-2.85714 1.42857,-1.42857 7.14285,1.42857 8.57143,0 0.67343,-0.67344 -0.67344,-2.18371 0,-2.85714 7.61904,0 -0.95239,0.95238 2.85714,-2.85715 1.42857,-1.42857 7.14286,1.42857 8.57143,0 0.67343,-0.67343 -0.67344,-2.18371 0,-2.85714 0.67343,-0.67344 1.90476,0 2.85714,0 4.7619,0 9.52381,0 14.28571,0 0.95239,0 2.18371,-0.67344 2.85715,0 0.67343,0.67343 -0.67344,2.18371 0,2.85714 0.67343,0.67344 1.90476,0 2.85714,0 0,0.95238 -0.67344,2.18371 0,2.85715 0.67344,0.67343 2.18371,-0.67344 2.85714,0 0.67344,0.67343 -0.67343,2.1837 0,2.85714 0.67344,0.67343 2.18371,-0.67344 2.85715,0 0.67343,0.67343 -0.67344,2.18371 0,2.85714 0.67343,0.67344 2.1837,-0.67343 2.85714,0 0.96256,0.96256 -0.96256,4.75172 0,5.71429 0.92698,0.92697 4.78731,-0.92698 5.71428,0 0.67344,0.67343 -0.67343,2.1837 0,2.85714 0.67344,0.67343 2.18371,-0.67344 2.85715,0 0.67343,0.67343 -0.67344,2.18371 0,2.85714 0.67343,0.67344 2.1837,-0.67343 2.85714,0 0.67344,0.67344 -0.67344,2.18371 0,2.85715 0.67344,0.67343 2.18371,-0.67344 2.85714,0 0.67344,0.67343 -0.67343,2.1837 0,2.85714 0.67344,0.67343 2.18371,-0.67344 2.85715,0 0.67343,0.67343 -0.67344,2.18371 0,2.85714 0.11497,0.11498 10.37932,0 11.42857,0 7.61904,0 -0.95238,0.95238 2.85714,-2.85714 0.67344,-0.67344 2.18371,0.67343 2.85714,0 0.67344,-0.67344 -0.67343,-2.18371 0,-2.85714 0.67344,-0.67344 2.18371,0.67343 2.85715,0 0.67343,-0.67344 -0.67344,-2.18371 0,-2.85715 1.34687,-1.34687 4.36741,1.34687 5.71428,0 0.67344,-0.67343 -0.67343,-2.18371 0,-2.85714 5.91153,-5.91153 -0.23108,9.0336 5.71429,-2.85714 0.42591,-0.85184 -0.67344,-2.18371 0,-2.85715 1.42857,-1.42857 7.14285,1.42858 8.57143,0 0.67343,-0.67343 -0.67344,-2.1837 0,-2.85714 1.34687,-1.34687 4.36741,1.34687 5.71428,0 0.67344,-0.67343 -0.67343,-2.18371 0,-2.85714 0.0919,-0.0919 7.8785,0 8.57143,0 2.02515,0 16.40414,-0.36936 17.14286,0 1.20467,0.60234 1.65246,2.2548 2.85714,2.85714 1.54158,0.77079 4.1727,-0.77079 5.71429,0 1.20467,0.60234 1.65246,2.25481 2.85714,2.85714 0.85183,0.42592 2.18371,-0.67343 2.85714,0 0.67344,0.67344 -0.67343,2.18371 0,2.85715 0.68752,0.68751 10.74106,-0.68752 11.42857,0 0.67344,0.67343 -0.67343,2.1837 0,2.85714 0.68752,0.68752 10.74106,-0.68752 11.42857,0 3.80953,3.80952 -4.7619,2.85714 2.85715,2.85714"
           id="path2995"
           inkscape:connector-curvature="0" />
        <rect
           style="fill:none;stroke:#c0c0c0;stroke-width:49.79473114;stroke-linecap:round;stroke-linejoin:bevel;stroke-miterlimit:4;stroke-opacity:1;stroke-dasharray:none"
           id="rect3827"
           width="325.66711"
           height="517.36029"
           x="216.84042"
           y="560.02734"
           ry="46.880547"
           rx="141.59439"
           inkscape:export-xdpi="90"
           inkscape:export-ydpi="90" />
        <path
           style="fill:#c0c0c0;fill-opacity:1;stroke:#c0c0c0;stroke-width:0;stroke-linecap:round;stroke-linejoin:miter;stroke-miterlimit:4;stroke-opacity:1;stroke-dasharray:none"
           id="path3779-1-4"
           d="m 237.18356,914.98296 c 0.82493,1.22822 1.75095,2.33766 2.67567,3.44132 1.29683,1.48097 2.63249,2.90157 3.96734,4.32556 1.63177,1.70903 3.33751,3.29513 5.03284,4.89818 1.94044,1.82473 3.94028,3.54159 5.9488,5.24086 2.24477,1.86129 4.55714,3.58233 6.91517,5.19769 2.61789,1.7175 5.29975,3.2748 7.99324,4.7883 2.86675,1.6085 5.81099,2.9706 8.7774,4.2443 3.1657,1.3632 6.4051,2.4091 9.62601,3.5302 3.35274,1.18 6.73041,2.2369 10.11988,3.2293 3.52811,1.0266 7.08335,1.8887 10.64542,2.6979 3.71403,0.8357 7.44607,1.5299 11.1822,2.182 3.87001,0.6688 7.75105,1.225 11.63457,1.748 3.99499,0.5328 7.99662,0.9776 11.9998,1.3961 4.03523,0.465 8.08301,0.6893 12.13056,0.8884 4.05423,0.1891 8.11007,0.3128 12.16595,0.4272 4.12402,0.1134 8.24843,0.2008 12.37289,0.2826 4.10027,0.014 8.20015,-0.075 12.29965,-0.1645 4.10949,-0.078 8.21771,-0.181 12.32448,-0.3877 4.07548,-0.2364 8.15297,-0.4301 12.22517,-0.7476 4.07734,-0.2831 8.14046,-0.8035 12.20366,-1.3078 4.04401,-0.4611 8.07836,-1.0314 12.11104,-1.6295 3.99246,-0.5505 7.97456,-1.2017 11.95512,-1.8759 3.94288,-0.6248 7.87529,-1.3406 11.80635,-2.0752 3.8287,-0.8286 7.66524,-1.6031 11.4845,-2.5006 3.76428,-0.8507 7.5105,-1.8162 11.25649,-2.7872 3.62455,-0.9987 7.22604,-2.1344 10.80128,-3.3889 3.4829,-1.2121 6.94953,-2.5041 10.38908,-3.9036 3.31037,-1.439 6.60228,-2.9431 9.84698,-4.6087 3.16328,-1.54402 6.19271,-3.48226 9.21599,-5.41866 19.98885,-14.46043 -36.18985,27.44956 -19.9579,14.69266 0,0 31.00861,-15.37844 31.00861,-15.37844 l 0,0 c -11.93895,9.91234 -24.3042,19.03694 -37.03865,27.17464 -3.07208,1.8735 -6.19051,3.618 -9.38715,5.1198 -3.29862,1.5569 -6.61285,3.0675 -9.98037,4.3665 -3.47477,1.3164 -6.95475,2.6114 -10.46689,3.7579 -3.61814,1.159 -7.24456,2.2798 -10.90845,3.182 -3.75806,0.9575 -7.5248,1.8572 -11.29944,2.7022 -3.84217,0.8305 -7.68278,1.6792 -11.54016,2.3882 -3.93907,0.718 -7.88476,1.3716 -11.83064,2.0256 -3.99025,0.6544 -7.98667,1.2411 -11.98437,1.8164 -4.04414,0.5751 -8.09381,1.0792 -12.14526,1.5631 -4.08763,0.4826 -8.17872,0.9168 -12.27965,1.1712 -4.08744,0.2565 -8.17573,0.4959 -12.26566,0.6785 -4.11929,0.1577 -8.24011,0.2328 -12.36059,0.322 -4.11875,0.076 -8.23845,0.1457 -12.35741,0.052 -4.131,-0.086 -8.26196,-0.1785 -12.39238,-0.3025 -4.0698,-0.1263 -8.13962,-0.2638 -12.20688,-0.4904 -4.07465,-0.2418 -8.14567,-0.5606 -12.20845,-1.0319 -4.02156,-0.441 -8.0414,-0.9099 -12.05383,-1.4721 -3.90753,-0.5528 -7.81227,-1.1412 -11.7047,-1.849 -3.76708,-0.6918 -7.52955,-1.4288 -11.272,-2.3151 -3.59862,-0.86 -7.18943,-1.7766 -10.75151,-2.8597 -3.41301,-1.0421 -6.81313,-2.1502 -10.19565,-3.3442 -3.28221,-1.1351 -6.55821,-2.3095 -9.76658,-3.7553 -3.02735,-1.3727 -6.02909,-2.8394 -8.95465,-4.5387 -2.75381,-1.594 -5.50737,-3.2011 -8.15846,-5.062 -2.41444,-1.7231 -4.79581,-3.5242 -7.09567,-5.4883 -2.04464,-1.7507 -4.08263,-3.5148 -6.05805,-5.392 -1.7506,-1.6422 -3.48381,-3.3164 -5.15823,-5.0842 -1.39645,-1.4687 -2.77849,-2.9615 -4.11487,-4.519 -0.98475,-1.1874 -1.94898,-2.403 -2.84329,-3.70329 0,0 28.62165,-22.14888 28.62165,-22.14888 z"
           inkscape:connector-curvature="0" />
        <path
           style="fill:#c0c0c0;fill-opacity:1;stroke:#c0c0c0;stroke-width:0;stroke-linecap:round;stroke-linejoin:miter;stroke-miterlimit:4;stroke-opacity:1;stroke-dasharray:none"
           id="path3779-1-4-8"
           d="m 234.32642,820.69737 c 0.82493,1.22822 1.75095,2.33766 2.67567,3.44132 1.29683,1.48097 2.63249,2.90157 3.96734,4.32556 1.63177,1.70903 3.33751,3.29513 5.03284,4.89818 1.94044,1.82473 3.94028,3.54159 5.9488,5.24086 2.24477,1.86129 4.55714,3.58233 6.91517,5.19773 2.61789,1.71748 5.29975,3.27473 7.99324,4.7883 2.86675,1.60846 5.81099,2.9706 8.7774,4.24425 3.1657,1.3632 6.4051,2.40911 9.62601,3.53025 3.35274,1.17995 6.73041,2.23688 10.11988,3.22924 3.52811,1.02661 7.08335,1.88875 10.64542,2.69792 3.71403,0.8357 7.44607,1.5299 11.1822,2.182 3.87001,0.6688 7.75105,1.225 11.63457,1.748 3.99499,0.5328 7.99662,0.9776 11.9998,1.3961 4.03523,0.465 8.08301,0.6893 12.13056,0.8884 4.05423,0.1891 8.11007,0.3128 12.16595,0.4272 4.12402,0.1134 8.24843,0.2008 12.37289,0.2826 4.10027,0.014 8.20015,-0.075 12.29965,-0.1645 4.10949,-0.078 8.21771,-0.181 12.32448,-0.3877 4.07548,-0.2364 8.15297,-0.4301 12.22517,-0.7476 4.07734,-0.2831 8.14046,-0.8035 12.20366,-1.3078 4.04401,-0.4611 8.07836,-1.0314 12.11104,-1.6295 3.99246,-0.5505 7.97456,-1.2017 11.95512,-1.8759 3.94288,-0.62482 7.87529,-1.34063 11.80635,-2.07524 3.8287,-0.82861 7.66524,-1.6031 11.4845,-2.50057 3.76428,-0.8507 7.5105,-1.81621 11.25649,-2.78724 3.62455,-0.99869 7.22604,-2.13431 10.80128,-3.38884 3.4829,-1.21211 6.94953,-2.5041 10.38908,-3.90362 3.31037,-1.43899 6.60228,-2.94314 9.84698,-4.60872 3.16328,-1.54399 6.19271,-3.48223 9.21599,-5.41863 19.98885,-14.46043 -36.18985,27.44956 -19.9579,14.69264 0,0 31.00861,-15.37842 31.00861,-15.37842 l 0,0 c -11.93895,9.91236 -24.3042,19.03695 -37.03865,27.17464 -3.07208,1.8735 -6.19051,3.618 -9.38715,5.1198 -3.29862,1.5569 -6.61285,3.0675 -9.98037,4.3665 -3.47477,1.3164 -6.95475,2.6114 -10.46689,3.7579 -3.61814,1.159 -7.24456,2.2798 -10.90845,3.182 -3.75806,0.9575 -7.5248,1.8572 -11.29944,2.7022 -3.84217,0.8305 -7.68278,1.6792 -11.54016,2.3882 -3.93907,0.718 -7.88476,1.3716 -11.83064,2.0256 -3.99025,0.6544 -7.98667,1.2411 -11.98437,1.8164 -4.04414,0.5751 -8.09381,1.0792 -12.14526,1.5631 -4.08763,0.4826 -8.17872,0.9168 -12.27965,1.1712 -4.08744,0.2565 -8.17573,0.4959 -12.26566,0.6785 -4.11929,0.1577 -8.24011,0.2328 -12.36059,0.322 -4.11875,0.076 -8.23845,0.1457 -12.35741,0.052 -4.131,-0.086 -8.26196,-0.1785 -12.39238,-0.3025 -4.0698,-0.1263 -8.13962,-0.2638 -12.20688,-0.4904 -4.07465,-0.2418 -8.14567,-0.5606 -12.20845,-1.0319 -4.02156,-0.441 -8.0414,-0.9099 -12.05383,-1.4721 -3.90753,-0.5528 -7.81227,-1.1412 -11.7047,-1.849 -3.76708,-0.6918 -7.52955,-1.4288 -11.272,-2.3151 -3.59862,-0.86 -7.18943,-1.7766 -10.75151,-2.8597 -3.41301,-1.0421 -6.81313,-2.1502 -10.19565,-3.3442 -3.28221,-1.1351 -6.55821,-2.3095 -9.76658,-3.7553 -3.02735,-1.3727 -6.02909,-2.8394 -8.95465,-4.5387 -2.75381,-1.594 -5.50737,-3.2011 -8.15846,-5.062 -2.41444,-1.7231 -4.79581,-3.5242 -7.09567,-5.48826 -2.04464,-1.75076 -4.08263,-3.51485 -6.05805,-5.39203 -1.7506,-1.64225 -3.48381,-3.31636 -5.15823,-5.08425 -1.39645,-1.46863 -2.77849,-2.9615 -4.11487,-4.51891 -0.98475,-1.18744 -1.94898,-2.40308 -2.84329,-3.70334 0,0 28.62165,-22.14888 28.62165,-22.14888 z"
           inkscape:connector-curvature="0" />
        <path
           style="fill:#c0c0c0;fill-opacity:1;stroke:#c0c0c0;stroke-width:0;stroke-linecap:round;stroke-linejoin:miter;stroke-miterlimit:4;stroke-opacity:1;stroke-dasharray:none"
           id="path3779-1-4-82"
           d="m 238.21551,726.41166 c 0.85332,1.22822 1.8112,2.33766 2.76774,3.44132 1.34145,1.48097 2.72307,2.90157 4.10384,4.32556 1.68792,1.70903 3.45235,3.29513 5.20601,4.89818 2.00721,1.82473 4.07586,3.54159 6.15349,5.24086 2.32201,1.86129 4.71394,3.58233 7.1531,5.19773 2.70797,1.71748 5.48211,3.27473 8.26827,4.7883 2.96539,1.60846 6.01094,2.9706 9.07942,4.24425 3.27462,1.3632 6.62548,2.40911 9.95722,3.53025 3.4681,1.17995 6.96198,2.23688 10.46808,3.22924 3.6495,1.02661 7.32707,1.88875 11.0117,2.69792 3.84183,0.8357 7.70228,1.5299 11.56696,2.182 4.00317,0.6688 8.01775,1.225 12.03489,1.748 4.13245,0.5328 8.27176,0.9776 12.41269,1.3961 4.17407,0.465 8.36112,0.6893 12.54794,0.8884 4.19373,0.1891 8.38912,0.3128 12.58455,0.4272 4.26592,0.1134 8.53224,0.2008 12.79862,0.2826 4.24135,0.014 8.4823,-0.075 12.72285,-0.1645 4.25089,-0.078 8.50047,-0.181 12.74854,-0.3877 4.21571,-0.2364 8.4335,-0.4301 12.64581,-0.7476 4.21763,-0.2831 8.42056,-0.8035 12.62356,-1.3078 4.18316,-0.4611 8.35632,-1.0314 12.52776,-1.6295 4.12983,-0.5505 8.24894,-1.2017 12.36647,-1.8759 4.07854,-0.62482 8.14626,-1.34063 12.21258,-2.07524 3.96043,-0.82861 7.92898,-1.6031 11.87965,-2.50057 3.8938,-0.8507 7.76892,-1.81621 11.6438,-2.78724 3.74927,-0.99869 7.47468,-2.13431 11.17293,-3.38884 3.60274,-1.21211 7.18865,-2.5041 10.74655,-3.90362 3.42427,-1.43899 6.82945,-2.94314 10.18579,-4.60872 3.27212,-1.54399 6.40579,-3.48223 9.53309,-5.41863 20.67663,-14.46043 -37.43506,27.44956 -20.6446,14.69264 0,0 32.07554,-15.37842 32.07554,-15.37842 l 0,0 c -12.34974,9.91236 -25.14045,19.03695 -38.31306,27.17464 -3.17779,1.8735 -6.40352,3.618 -9.71015,5.1198 -3.41211,1.5569 -6.84038,3.0675 -10.32377,4.3665 -3.59433,1.3164 -7.19405,2.6114 -10.82703,3.7579 -3.74263,1.159 -7.49383,2.2798 -11.28379,3.182 -3.88736,0.9575 -7.78371,1.8572 -11.68823,2.7022 -3.97437,0.8305 -7.94712,1.6792 -11.93723,2.3882 -4.0746,0.718 -8.15605,1.3716 -12.2377,2.0256 -4.12755,0.6544 -8.26148,1.2411 -12.39673,1.8164 -4.18329,0.5751 -8.3723,1.0792 -12.56315,1.5631 -4.22828,0.4826 -8.46013,0.9168 -12.70217,1.1712 -4.22808,0.2565 -8.45704,0.4959 -12.68769,0.6785 -4.26103,0.1577 -8.52364,0.2328 -12.78589,0.322 -4.26047,0.076 -8.52192,0.1457 -12.7826,0.052 -4.27314,-0.086 -8.54624,-0.1785 -12.81878,-0.3025 -4.20983,-0.1263 -8.41968,-0.2638 -12.62689,-0.4904 -4.21485,-0.2418 -8.42594,-0.5606 -12.62852,-1.0319 -4.15993,-0.441 -8.31808,-0.9099 -12.46857,-1.4721 -4.04198,-0.5528 -8.08107,-1.1412 -12.10743,-1.849 -3.8967,-0.6918 -7.78863,-1.4288 -11.65985,-2.3151 -3.72244,-0.86 -7.4368,-1.7766 -11.12144,-2.8597 -3.53045,-1.0421 -7.04756,-2.1502 -10.54646,-3.3442 -3.39515,-1.1351 -6.78387,-2.3095 -10.10263,-3.7553 -3.13152,-1.3727 -6.23654,-2.8394 -9.26276,-4.5387 -2.84856,-1.594 -5.69687,-3.2011 -8.43918,-5.062 -2.49751,-1.7231 -4.96082,-3.5242 -7.33981,-5.48826 -2.11499,-1.75076 -4.22311,-3.51485 -6.2665,-5.39203 -1.81083,-1.64225 -3.60368,-3.31636 -5.33571,-5.08425 -1.4445,-1.46863 -2.87409,-2.9615 -4.25645,-4.51891 -1.01864,-1.18744 -2.01604,-2.40308 -2.94112,-3.70334 0,0 29.60645,-22.14888 29.60645,-22.14888 z"
           inkscape:connector-curvature="0" />
        <path
           sodipodi:type="arc"
           style="fill:none;stroke:#006400;stroke-width:19.22033882;stroke-miterlimit:4;stroke-opacity:1;stroke-dasharray:none"
           id="path3826"
           sodipodi:cx="602.85712"
           sodipodi:cy="650"
           sodipodi:rx="851.42859"
           sodipodi:ry="655.71429"
           d="m 1454.2857,650 a 851.42859,655.71429 0 1 1 -1702.85717,0 851.42859,655.71429 0 1 1 1702.85717,0 z"
           transform="matrix(0.72752277,0,0,0.94470886,-59.032848,-21.417772)" />
        <path
           sodipodi:type="arc"
           style="fill:none;stroke:#006400;stroke-width:17.52939987;stroke-miterlimit:4;stroke-opacity:1;stroke-dasharray:none"
           id="path3826-4"
           sodipodi:cx="602.85712"
           sodipodi:cy="650"
           sodipodi:rx="851.42859"
           sodipodi:ry="655.71429"
           d="m 1454.2857,650 a 851.42859,655.71429 0 1 1 -1702.85717,0 851.42859,655.71429 0 1 1 1702.85717,0 z"
           transform="matrix(0.79770182,0,0,1.0358383,-101.34079,-80.651908)" />
        <path
           sodipodi:type="arc"
           style="fill:none;stroke:#006400;stroke-width:16.11192894;stroke-miterlimit:4;stroke-opacity:1;stroke-dasharray:none"
           id="path3826-4-8"
           sodipodi:cx="602.85712"
           sodipodi:cy="650"
           sodipodi:rx="851.42859"
           sodipodi:ry="655.71429"
           d="m 1454.2857,650 a 851.42859,655.71429 0 1 1 -1702.85717,0 851.42859,655.71429 0 1 1 1702.85717,0 z"
           transform="matrix(0.86788086,0,0,1.1269678,-143.64872,-139.88608)" />
      </g>
    </g>
  </g>
</svg>
